<svg width="24" height="24" viewBox="0 0 24 24" fill="none" xmlns="http://www.w3.org/2000/svg">
<g clip-path="url(#clip0_1859_512)">
<path d="M8.46447 15.5356C8.66481 15.7359 8.90075 15.8361 9.17228 15.8361C9.44287 15.8361 9.67833 15.7359 9.87868 15.5356L12 13.4143L14.139 15.5533C14.3393 15.7536 14.5722 15.8507 14.8376 15.8446C15.1025 15.8389 15.3352 15.7359 15.5355 15.5356C15.7359 15.3352 15.8361 15.0993 15.8361 14.8278C15.8361 14.5572 15.7359 14.3217 15.5355 14.1214L13.4142 12L15.5532 9.86105C15.7536 9.6607 15.8509 9.42806 15.8452 9.16313C15.8391 8.89773 15.7359 8.66486 15.5355 8.46451C15.3352 8.26416 15.0997 8.16399 14.8291 8.16399C14.5576 8.16399 14.3217 8.26416 14.1213 8.46451L12 10.5858L9.861 8.44683C9.66066 8.24649 9.42802 8.14914 9.16309 8.1548C8.89769 8.16093 8.66481 8.26416 8.46447 8.46451C8.26412 8.66486 8.16395 8.90032 8.16395 9.17091C8.16395 9.44244 8.26412 9.67838 8.46447 9.87873L10.5858 12L8.44679 14.139C8.24644 14.3394 8.14933 14.5723 8.15546 14.8377C8.16112 15.1026 8.26412 15.3352 8.46447 15.5356ZM4.92893 19.0711C3.95077 18.0929 3.21726 16.988 2.72842 15.7562C2.2391 14.5249 1.99444 13.2728 1.99444 12C1.99444 10.7273 2.2391 9.4752 2.72842 8.24389C3.21726 7.01211 3.95077 5.90714 4.92893 4.92898C5.9071 3.95081 7.01207 3.21731 8.24385 2.72846C9.47516 2.23914 10.7272 1.99449 12 1.99449C13.2728 1.99449 14.5251 2.23891 15.7569 2.72775C16.9882 3.21707 18.0929 3.95081 19.0711 4.92898C20.0492 5.90714 20.783 7.01188 21.2723 8.24319C21.7611 9.47497 22.0056 10.7273 22.0056 12C22.0056 13.2728 21.7609 14.5249 21.2716 15.7562C20.7827 16.988 20.0492 18.0929 19.0711 19.0711C18.0929 20.0493 16.9879 20.7828 15.7562 21.2716C14.5248 21.7609 13.2728 22.0056 12 22.0056C10.7272 22.0056 9.47516 21.7609 8.24385 21.2716C7.01207 20.7828 5.9071 20.0493 4.92893 19.0711ZM6.34315 17.6569C7.91057 19.2243 9.79618 20.0083 12 20.0087C14.2038 20.0083 16.0894 19.2243 17.6569 17.6569C19.2243 16.0895 20.0082 14.2039 20.0087 12C20.0082 9.79623 19.2243 7.91061 17.6569 6.34319C16.0894 4.77577 14.2041 3.99206 12.0007 3.99206C9.79642 3.99206 7.91057 4.77577 6.34315 6.34319C4.77573 7.91061 3.99202 9.79647 3.99202 12.0008C3.99202 14.2041 4.77573 16.0895 6.34315 17.6569Z" fill="#6D7D8B"/>
</g>
<defs>
<clipPath id="clip0_1859_512">
<rect width="24" height="24" fill="white"/>
</clipPath>
</defs>
</svg>
